# xmcd
#
# Track frame offsets:
#	150
#	7222
#	15000
#	27737
#	41343
#	50498
#	63588
#	80025
#	92681
#	106194
#	122504
#	143485
#	163532
#
# Disc length: 2350 seconds
#
# Revision: 1
# Processed by: cddbd v1.5.2PL0 Copyright (c) Steve Scherf et al.
# Submitted via: EasyCDDAExtractor 12.0.7.1
#
DISCID=9d092c0d
DTITLE=Владимир Высоцкий - Летела жизнь в плохом автомобиле
DYEAR=2011
DGENRE=Chanson
TTITLE0=Бал-маскарад
TTITLE1=Песня завистника
TTITLE2=Ой, где был я вчера
TTITLE3=Песня-сказка про джина
TTITLE4=Из детства
TTITLE5=Песенка о слухах
TTITLE6=Милицейский протокол
TTITLE7=Товарищи ученые
TTITLE8=Мишка Шифман
TTITLE9=Диалог у телевизора
TTITLE10=Летела жизнь
TTITLE11=Письмо в редакцию
TTITLE12=Лекция о международном положении
EXTD=
EXTT0=
EXTT1=
EXTT2=
EXTT3=
EXTT4=
EXTT5=
EXTT6=
EXTT7=
EXTT8=
EXTT9=
EXTT10=
EXTT11=
EXTT12=
PLAYORDER=
